# xmcd
#
# Track frame offsets:
#	150
#	16067
#	27523
#	41040
#	55151
#	68233
#	81258
#	93933
#	106747
#	120186
#
# Disc length: 1725 seconds
#
# Revision: 0
# Processed by: cddbd v1.5.2PL0 Copyright (c) Steve Scherf et al.
# Submitted via: audiograbber 1.83.01
#
DISCID=7206bb0a
DTITLE=Various Artist - Great Country Treasury Of 60 Love Songs (LP1)
DYEAR=1978
DGENRE=Country
TTITLE0=Billy Crash Craddock - The First Time
TTITLE1=David Houston - Ain't It Good (To Feel This Way)
TTITLE2=Christy Lane - Shake Me I Rattle (Squeeze Me I Cry)
TTITLE3=Tommy Cash - Take My Love To Rita
TTITLE4=Barbara Mandrell - Hold Me
TTITLE5=Lynn Anderson - We Got Love
TTITLE6=Marty Robbins - Don't Let Me Touch You
TTITLE7=Bob Luman - The Pay Phone
TTITLE8=David Houston - My Woman's Good To Me
TTITLE9=George Jones - Love Is All We Need
EXTD=
EXTT0=
EXTT1=
EXTT2=
EXTT3=
EXTT4=
EXTT5=
EXTT6=
EXTT7=
EXTT8=
EXTT9=
PLAYORDER=
